<svg viewBox="0 0 98 18" version="1.1" xmlns="http://www.w3.org/2000/svg" xmlns:xlink="http://www.w3.org/1999/xlink"><g id="__1je023J__Page-1" stroke="none" stroke-width="1" fill="none" fill-rule="evenodd"><g id="__1je023J__-homepage_5-Alt" transform="translate(-573.000000, -3641.000000)" fill-rule="nonzero"><g id="__1je023J__Group-24" transform="translate(0.000000, 3089.000000)"><g id="__1je023J__Group-27" transform="translate(338.000000, 461.000000)"><g id="__1je023J__Group-21" transform="translate(197.000000, 88.000000)"><g id="__1je023J__Group-31" transform="translate(0.000000, 3.000000)"><g id="__1je023J__Group-30" transform="translate(38.000000, 0.000000)"><path d="M17.9280333,6.49614551 C17.7590445,6.04604237 17.3262619,5.74698359 16.8418232,5.74555925 L12.1392903,5.74555925 C11.9752901,5.7456764 11.8290931,5.64311377 11.7746451,5.48974719 L10.0866158,0.746501525 C9.91729729,0.297557937 9.48463833,0 9.00117815,0 C8.51771797,0 8.08505901,0.297557937 7.91574054,0.746501525 L7.91187778,0.758755995 L6.22771125,5.48974719 C6.17335745,5.64284865 6.02755509,5.74535155 5.86383857,5.74555925 L1.15976058,5.74555925 C0.672004283,5.74519566 0.236231006,6.04766136 0.0696963737,6.50216148 C-0.096838259,6.9566616 0.0415196941,7.46589073 0.415791604,7.77597169 L4.42070871,11.0693604 C4.54332277,11.1702368 4.59087847,11.3354013 4.5404545,11.4852465 L2.85783308,16.4873678 C2.69826768,16.9619452 2.86679995,17.4843342 3.27454496,17.7790238 C3.68228996,18.0737134 4.23550922,18.0729558 4.64243156,17.7771508 L8.77250233,14.7748057 C8.90840947,14.6760916 9.09317427,14.6760916 9.22908142,14.7748057 L13.3576071,17.7763848 C13.7643735,18.0732104 14.318206,18.0746607 14.7265484,17.7799698 C15.1348908,17.4852788 15.3036783,16.9623309 15.1437507,16.4873678 L13.4611292,11.4821829 C13.4107053,11.3323377 13.458261,11.1671732 13.580875,11.0662968 L17.5935177,7.76831265 C17.9629274,7.4556633 18.0964705,6.94779747 17.9280333,6.49614551 Z" id="__1je023J__Path" fill="#F6AD01"></path><path d="M37.9280333,6.49614551 C37.7590445,6.04604237 37.3262619,5.74698359 36.8418232,5.74555925 L32.1392903,5.74555925 C31.9752901,5.7456764 31.8290931,5.64311377 31.7746451,5.48974719 L30.0866158,0.746501525 C29.9172973,0.297557937 29.4846383,0 29.0011781,0 C28.517718,0 28.085059,0.297557937 27.9157405,0.746501525 L27.9118778,0.758755995 L26.2277112,5.48974719 C26.1733575,5.64284865 26.0275551,5.74535155 25.8638386,5.74555925 L21.1597606,5.74555925 C20.6720043,5.74519566 20.236231,6.04766136 20.0696964,6.50216148 C19.9031617,6.9566616 20.0415197,7.46589073 20.4157916,7.77597169 L24.4207087,11.0693604 C24.5433228,11.1702368 24.5908785,11.3354013 24.5404545,11.4852465 L22.8578331,16.4873678 C22.6982677,16.9619452 22.8668,17.4843342 23.274545,17.7790238 C23.68229,18.0737134 24.2355092,18.0729558 24.6424316,17.7771508 L28.7725023,14.7748057 C28.9084095,14.6760916 29.0931743,14.6760916 29.2290814,14.7748057 L33.3576071,17.7763848 C33.7643735,18.0732104 34.318206,18.0746607 34.7265484,17.7799698 C35.1348908,17.4852788 35.3036783,16.9623309 35.1437507,16.4873678 L33.4611292,11.4821829 C33.4107053,11.3323377 33.458261,11.1671732 33.580875,11.0662968 L37.5935177,7.76831265 C37.9629274,7.4556633 38.0964705,6.94779747 37.9280333,6.49614551 Z" id="__1je023J__Path" fill="#F6AD01"></path><path d="M57.9280333,6.49614551 C57.7590445,6.04604237 57.3262619,5.74698359 56.8418232,5.74555925 L52.1392903,5.74555925 C51.9752901,5.7456764 51.8290931,5.64311377 51.7746451,5.48974719 L50.0866158,0.746501525 C49.9172973,0.297557937 49.4846383,0 49.0011781,0 C48.517718,0 48.085059,0.297557937 47.9157405,0.746501525 L47.9118778,0.758755995 L46.2277112,5.48974719 C46.1733575,5.64284865 46.0275551,5.74535155 45.8638386,5.74555925 L41.1597606,5.74555925 C40.6720043,5.74519566 40.236231,6.04766136 40.0696964,6.50216148 C39.9031617,6.9566616 40.0415197,7.46589073 40.4157916,7.77597169 L44.4207087,11.0693604 C44.5433228,11.1702368 44.5908785,11.3354013 44.5404545,11.4852465 L42.8578331,16.4873678 C42.6982677,16.9619452 42.8668,17.4843342 43.274545,17.7790238 C43.68229,18.0737134 44.2355092,18.0729558 44.6424316,17.7771508 L48.7725023,14.7748057 C48.9084095,14.6760916 49.0931743,14.6760916 49.2290814,14.7748057 L53.3576071,17.7763848 C53.7643735,18.0732104 54.318206,18.0746607 54.7265484,17.7799698 C55.1348908,17.4852788 55.3036783,16.9623309 55.1437507,16.4873678 L53.4611292,11.4821829 C53.4107053,11.3323377 53.458261,11.1671732 53.580875,11.0662968 L57.5935177,7.76831265 C57.9629274,7.4556633 58.0964705,6.94779747 57.9280333,6.49614551 Z" id="__1je023J__Path" fill="#F6AD01"></path><path d="M77.9280333,6.49614551 C77.7590445,6.04604237 77.3262619,5.74698359 76.8418232,5.74555925 L72.1392903,5.74555925 C71.9752901,5.7456764 71.8290931,5.64311377 71.7746451,5.48974719 L70.0866158,0.746501525 C69.9172973,0.297557937 69.4846383,0 69.0011781,0 C68.517718,0 68.085059,0.297557937 67.9157405,0.746501525 L67.9118778,0.758755995 L66.2277112,5.48974719 C66.1733575,5.64284865 66.0275551,5.74535155 65.8638386,5.74555925 L61.1597606,5.74555925 C60.6720043,5.74519566 60.236231,6.04766136 60.0696964,6.50216148 C59.9031617,6.9566616 60.0415197,7.46589073 60.4157916,7.77597169 L64.4207087,11.0693604 C64.5433228,11.1702368 64.5908785,11.3354013 64.5404545,11.4852465 L62.8578331,16.4873678 C62.6982677,16.9619452 62.8668,17.4843342 63.274545,17.7790238 C63.68229,18.0737134 64.2355092,18.0729558 64.6424316,17.7771508 L68.7725023,14.7748057 C68.9084095,14.6760916 69.0931743,14.6760916 69.2290814,14.7748057 L73.3576071,17.7763848 C73.7643735,18.0732104 74.318206,18.0746607 74.7265484,17.7799698 C75.1348908,17.4852788 75.3036783,16.9623309 75.1437507,16.4873678 L73.4611292,11.4821829 C73.4107053,11.3323377 73.458261,11.1671732 73.580875,11.0662968 L77.5935177,7.76831265 C77.9629274,7.4556633 78.0964705,6.94779747 77.9280333,6.49614551 Z" id="__1je023J__Path" fill="#F6AD01"></path><path d="M97.9280333,6.49614551 C97.7590445,6.04604237 97.3262619,5.74698359 96.8418232,5.74555925 L92.1392903,5.74555925 C91.9752901,5.7456764 91.8290931,5.64311377 91.7746451,5.48974719 L90.0866158,0.746501525 C89.9172973,0.297557937 89.4846383,0 89.0011781,0 C88.517718,0 88.085059,0.297557937 87.9157405,0.746501525 L87.9118778,0.758755995 L86.2277112,5.48974719 C86.1733575,5.64284865 86.0275551,5.74535155 85.8638386,5.74555925 L81.1597606,5.74555925 C80.6720043,5.74519566 80.236231,6.04766136 80.0696964,6.50216148 C79.9031617,6.9566616 80.0415197,7.46589073 80.4157916,7.77597169 L84.4207087,11.0693604 C84.5433228,11.1702368 84.5908785,11.3354013 84.5404545,11.4852465 L82.8578331,16.4873678 C82.6982677,16.9619452 82.8668,17.4843342 83.274545,17.7790238 C83.68229,18.0737134 84.2355092,18.0729558 84.6424316,17.7771508 L88.7725023,14.7748057 C88.9084095,14.6760916 89.0931743,14.6760916 89.2290814,14.7748057 L93.3576071,17.7763848 C93.7643735,18.0732104 94.318206,18.0746607 94.7265484,17.7799698 C95.1348908,17.4852788 95.3036783,16.9623309 95.1437507,16.4873678 L93.4611292,11.4821829 C93.4107053,11.3323377 93.458261,11.1671732 93.580875,11.0662968 L97.5935177,7.76831265 C97.9629274,7.4556633 98.0964705,6.94779747 97.9280333,6.49614551 Z" id="__1je023J__Path" fill="#CECEDE"></path><path d="M93.3576071,5.74555925 C93.1936069,5.7456764 91.8290931,5.64311377 91.7746451,5.48974719 L90.0866158,0.746501525 C89.9172973,0.297557937 89.4846383,0 89.0011781,0 C88.517718,0 88.085059,0.297557937 87.9157405,0.746501525 L87.9118778,0.758755995 L86.2277112,5.48974719 C86.1733575,5.64284865 86.0275551,5.74535155 85.8638386,5.74555925 L81.1597606,5.74555925 C80.6720043,5.74519566 80.236231,6.04766136 80.0696964,6.50216148 C79.9031617,6.9566616 80.0415197,7.46589073 80.4157916,7.77597169 L84.4207087,11.0693604 C84.5433228,11.1702368 84.5908785,11.3354013 84.5404545,11.4852465 L82.8578331,16.4873678 C82.6982677,16.9619452 82.8668,17.4843342 83.274545,17.7790238 C83.68229,18.0737134 84.2355092,18.0729558 84.6424316,17.7771508 L88.7725023,14.7748057 C88.9084095,14.6760916 89.0931743,14.6760916 89.2290814,14.7748057 L93.3576071,17.7763848 L93.3576071,5.74555925 Z" id="__1je023J__Path-Copy" fill="#F6AD01"></path></g></g></g></g></g></g></g></svg>